<?xml version="1.0" encoding="UTF-8" standalone="no"?>
<!DOCTYPE svg PUBLIC "-//W3C//DTD SVG 1.1//EN" "http://www.w3.org/Graphics/SVG/1.1/DTD/svg11.dtd">
<svg width="32" height="32" viewBox="0 0 32 32" version="1.1" xmlns="http://www.w3.org/2000/svg" xmlns:xlink="http://www.w3.org/1999/xlink" xml:space="preserve" xmlns:serif="http://www.serif.com/" style="fill-rule:evenodd;clip-rule:evenodd;stroke-linejoin:round;stroke-miterlimit:1.41421;">
	<path d="M13.757,19.868C13.341,19.868 12.926,19.709 12.608,19.392C9.635,16.419 9.635,11.581 12.608,8.608L18.608,2.608C20.049,1.168 21.963,0.375 24,0.375C26.037,0.375 27.952,1.168 29.392,2.608C32.365,5.581 32.365,10.419 29.392,13.392L26.649,16.134C26.014,16.769 24.986,16.769 24.351,16.134C23.716,15.5 23.716,14.471 24.351,13.836L27.094,11.094C28.799,9.388 28.799,6.612 27.094,4.906C26.267,4.08 25.169,3.625 24,3.625C22.831,3.625 21.733,4.08 20.906,4.906L14.906,10.906C13.201,12.612 13.201,15.388 14.906,17.094C15.541,17.728 15.541,18.757 14.906,19.392C14.589,19.709 14.173,19.868 13.757,19.868Z" style="fill:white;fill-rule:nonzero;"/>
	<path d="M8,31.625C5.963,31.625 4.048,30.832 2.608,29.392C-0.365,26.419 -0.365,21.581 2.608,18.608L5.351,15.866C5.986,15.231 7.015,15.231 7.649,15.866C8.284,16.5 8.284,17.529 7.649,18.164L4.906,20.906C3.201,22.612 3.201,25.388 4.906,27.094C5.733,27.92 6.831,28.375 8,28.375C9.169,28.375 10.267,27.92 11.094,27.094L17.094,21.094C18.799,19.388 18.799,16.612 17.094,14.906C16.459,14.272 16.459,13.243 17.094,12.608C17.728,11.974 18.757,11.974 19.392,12.608C22.365,15.581 22.365,20.419 19.392,23.392L13.392,29.392C11.952,30.832 10.037,31.625 8,31.625Z" style="fill:white;fill-rule:nonzero;"/>
</svg>