<?xml version="1.0" encoding="UTF-8" standalone="no"?>
<!DOCTYPE svg PUBLIC "-//W3C//DTD SVG 1.1//EN" "http://www.w3.org/Graphics/SVG/1.1/DTD/svg11.dtd">
<svg width="32" height="32" viewBox="0 0 32 32" version="1.1" xmlns="http://www.w3.org/2000/svg" xmlns:xlink="http://www.w3.org/1999/xlink" xml:space="preserve" xmlns:serif="http://www.serif.com/" style="fill-rule:evenodd;clip-rule:evenodd;stroke-linejoin:round;stroke-miterlimit:1.41421;">
	<path d="M22.121,15.145C23.293,13.753 24,11.958 24,10C24,5.589 20.411,2 16,2L6,2L6,30L18,30C22.411,30 26,26.411 26,22C26,19.095 24.444,16.547 22.121,15.145ZM12,6L15.172,6C16.921,6 18.344,7.794 18.344,10C18.344,12.206 16.921,14 15.172,14L12,14L12,6ZM16.969,26L12,26L12,18L16.969,18C18.795,18 20.281,19.794 20.281,22C20.281,24.206 18.795,26 16.969,26Z" style="fill:white;fill-rule:nonzero;"/>
</svg>