<?xml version="1.0" encoding="UTF-8" standalone="no"?>
<!DOCTYPE svg PUBLIC "-//W3C//DTD SVG 1.1//EN" "http://www.w3.org/Graphics/SVG/1.1/DTD/svg11.dtd">
<svg width="32" height="32" viewBox="0 0 32 32" version="1.1" xmlns="http://www.w3.org/2000/svg" xmlns:xlink="http://www.w3.org/1999/xlink" xml:space="preserve" xmlns:serif="http://www.serif.com/" style="fill-rule:evenodd;clip-rule:evenodd;stroke-linejoin:round;stroke-miterlimit:1.41421;">
	<g transform="matrix(6.12323e-17,1,-1,6.12323e-17,32,0)">
		<path d="M9.333,0L9.333,32L22.667,32L22.667,0L9.333,0ZM20,29.333L12,29.333L12,25.333L17.333,25.333L17.333,22.667L12,22.667L12,20L14.667,20L14.667,17.333L12,17.333L12,14.667L17.333,14.667L17.333,12L12,12L12,9.333L14.667,9.333L14.667,6.667L12,6.667L12,2.667L20,2.667L20,29.333Z" style="fill:white;fill-rule:nonzero;"/>
	</g>
</svg>