<?xml version="1.0" encoding="UTF-8" standalone="no"?>
<!DOCTYPE svg PUBLIC "-//W3C//DTD SVG 1.1//EN" "http://www.w3.org/Graphics/SVG/1.1/DTD/svg11.dtd">
<svg width="32" height="32" viewBox="0 0 32 32" version="1.1" xmlns="http://www.w3.org/2000/svg" xmlns:xlink="http://www.w3.org/1999/xlink" xml:space="preserve" xmlns:serif="http://www.serif.com/" style="fill-rule:evenodd;clip-rule:evenodd;stroke-linejoin:round;stroke-miterlimit:1.41421;">
	<path d="M12,2L32,2L32,6L12,6L12,2ZM12,14L32,14L32,18L12,18L12,14ZM12,26L32,26L32,30L12,30L12,26ZM0,4C0,1.791 1.791,0 4,0C6.209,0 8,1.791 8,4C8,6.209 6.209,8 4,8C1.791,8 0,6.209 0,4ZM0,16C0,13.791 1.791,12 4,12C6.209,12 8,13.791 8,16C8,18.209 6.209,20 4,20C1.791,20 0,18.209 0,16ZM0,28C0,25.791 1.791,24 4,24C6.209,24 8,25.791 8,28C8,30.209 6.209,32 4,32C1.791,32 0,30.209 0,28Z" style="fill:white;fill-rule:nonzero;"/>
</svg>