<?xml version="1.0" encoding="UTF-8" standalone="no"?>
<!DOCTYPE svg PUBLIC "-//W3C//DTD SVG 1.1//EN" "http://www.w3.org/Graphics/SVG/1.1/DTD/svg11.dtd">
<svg width="100" height="100" viewBox="0 0 100 100" version="1.1" xmlns="http://www.w3.org/2000/svg" xmlns:xlink="http://www.w3.org/1999/xlink" xml:space="preserve" xmlns:serif="http://www.serif.com/" style="fill-rule:evenodd;clip-rule:evenodd;stroke-linejoin:round;stroke-miterlimit:1.41421;">
    <rect id="Background" x="0" y="0" width="100" height="100" style="fill:rgb(64,64,64);"/>
    <path id="Grid" d="M6,96L6,100L5,100L5,96L0,96L0,95L5,95L5,86L0,86L0,85L5,85L5,76L0,76L0,75L5,75L5,66L0,66L0,65L5,65L5,56L0,56L0,55L5,55L5,46L0,46L0,45L5,45L5,36L0,36L0,35L5,35L5,26L0,26L0,25L5,25L5,16L0,16L0,15L5,15L5,6L0,6L0,5L5,5L5,0L6,0L6,5L15,5L15,0L16,0L16,5L25,5L25,0L26,0L26,5L35,5L35,0L36,0L36,5L45,5L45,0L46,0L46,5L55,5L55,0L56,0L56,5L65,5L65,0L66,0L66,5L75,5L75,0L76,0L76,5L85,5L85,0L86,0L86,5L95,5L95,0L96,0L96,5L100,5L100,6L96,6L96,15L100,15L100,16L96,16L96,25L100,25L100,26L96,26L96,35L100,35L100,36L96,36L96,45L100,45L100,46L96,46L96,55L100,55L100,56L96,56L96,65L100,65L100,66L96,66L96,75L100,75L100,76L96,76L96,85L100,85L100,86L96,86L96,95L100,95L100,96L96,96L96,100L95,100L95,96L86,96L86,100L85,100L85,96L76,96L76,100L75,100L75,96L66,96L66,100L65,100L65,96L56,96L56,100L55,100L55,96L46,96L46,100L45,100L45,96L36,96L36,100L35,100L35,96L26,96L26,100L25,100L25,96L16,96L16,100L15,100L15,96L6,96ZM6,95L15,95L15,86L6,86L6,95ZM95,86L86,86L86,95L95,95L95,86ZM85,86L76,86L76,95L85,95L85,86ZM75,86L66,86L66,95L75,95L75,86ZM65,86L56,86L56,95L65,95L65,86ZM55,86L46,86L46,95L55,95L55,86ZM45,86L36,86L36,95L45,95L45,86ZM35,86L26,86L26,95L35,95L35,86ZM25,86L16,86L16,95L25,95L25,86ZM6,85L15,85L15,76L6,76L6,85ZM25,76L16,76L16,85L25,85L25,76ZM35,76L26,76L26,85L35,85L35,76ZM45,76L36,76L36,85L45,85L45,76ZM55,76L46,76L46,85L55,85L55,76ZM65,76L56,76L56,85L65,85L65,76ZM75,76L66,76L66,85L75,85L75,76ZM85,76L76,76L76,85L85,85L85,76ZM95,76L86,76L86,85L95,85L95,76ZM6,75L15,75L15,66L6,66L6,75ZM25,66L16,66L16,75L25,75L25,66ZM35,66L26,66L26,75L35,75L35,66ZM45,66L36,66L36,75L45,75L45,66ZM55,66L46,66L46,75L55,75L55,66ZM65,66L56,66L56,75L65,75L65,66ZM75,66L66,66L66,75L75,75L75,66ZM85,66L76,66L76,75L85,75L85,66ZM95,66L86,66L86,75L95,75L95,66ZM6,65L15,65L15,56L6,56L6,65ZM25,56L16,56L16,65L25,65L25,56ZM75,56L66,56L66,65L75,65L75,56ZM35,56L26,56L26,65L35,65L35,56ZM45,56L36,56L36,65L45,65L45,56ZM55,56L46,56L46,65L55,65L55,56ZM65,56L56,56L56,65L65,65L65,56ZM85,56L76,56L76,65L85,65L85,56ZM95,56L86,56L86,65L95,65L95,56ZM6,55L15,55L15,46L6,46L6,55ZM45,46L36,46L36,55L45,55L45,46ZM25,46L16,46L16,55L25,55L25,46ZM35,46L26,46L26,55L35,55L35,46ZM55,46L46,46L46,55L55,55L55,46ZM65,46L56,46L56,55L65,55L65,46ZM75,46L66,46L66,55L75,55L75,46ZM85,46L76,46L76,55L85,55L85,46ZM95,46L86,46L86,55L95,55L95,46ZM6,45L15,45L15,36L6,36L6,45ZM35,36L26,36L26,45L35,45L35,36ZM25,36L16,36L16,45L25,45L25,36ZM45,36L36,36L36,45L45,45L45,36ZM55,36L46,36L46,45L55,45L55,36ZM65,36L56,36L56,45L65,45L65,36ZM75,36L66,36L66,45L75,45L75,36ZM85,36L76,36L76,45L85,45L85,36ZM95,36L86,36L86,45L95,45L95,36ZM6,35L15,35L15,26L6,26L6,35ZM95,26L86,26L86,35L95,35L95,26ZM85,26L76,26L76,35L85,35L85,26ZM75,26L66,26L66,35L75,35L75,26ZM65,26L56,26L56,35L65,35L65,26ZM55,26L46,26L46,35L55,35L55,26ZM45,26L36,26L36,35L45,35L45,26ZM35,26L26,26L26,35L35,35L35,26ZM25,26L16,26L16,35L25,35L25,26ZM6,25L15,25L15,16L6,16L6,25ZM55,16L46,16L46,25L55,25L55,16ZM65,16L56,16L56,25L65,25L65,16ZM75,16L66,16L66,25L75,25L75,16ZM45,16L36,16L36,25L45,25L45,16ZM85,16L76,16L76,25L85,25L85,16ZM95,16L86,16L86,25L95,25L95,16ZM35,16L26,16L26,25L35,25L35,16ZM25,16L16,16L16,25L25,25L25,16ZM6,6L6,15L15,15L15,6L6,6ZM85,6L76,6L76,15L85,15L85,6ZM95,6L86,6L86,15L95,15L95,6ZM25,6L16,6L16,15L25,15L25,6ZM45,6L36,6L36,15L45,15L45,6ZM55,6L46,6L46,15L55,15L55,6ZM65,6L56,6L56,15L65,15L65,6ZM75,6L66,6L66,15L75,15L75,6ZM35,6L26,6L26,15L35,15L35,6Z" style="fill:rgb(72,72,72);"/>
</svg>